:SAMPLES-PER-SECOND 30
:FULLY-SPECIFIED
:DEGREES
1304
root  -18.8037 38.9021 8.87703 -135.235 -85.5648 125.447
RightUpLeg  -15.729 -3.73536 -7.86196
RightLeg  15.3699 3.34624 0.733949
RightFoot  -4.56624 -0.62264 9.96436
RightToes  7.56698e-010 0 -3.6325e-017
Spine  14.888 -1.6947 -5.98799
Spine1  5.41529 -2.88279 0.801659
HEad  -1.14013 0.577047 -1.60837
LeftShoulder1  0.298248 2.64688 -28.6771
LeftArm  6.56696 -7.78641 -44.5801
LeftForeArm  12.9184 -19.7038 -5.18879
LeftHand  -0.0408047 7.22662 -0.101381
RightShoulder  -0.263824 -4.28608 26.3681
RightArm  12.2932 -5.42062 46.4335
RightForeArm  6.10056 27.2472 5.54793
RightHand  -0.31862 4.77421 -3.93036
LeftUpLeg  8.8288 6.41583 -8.06281
LeftLeg  16.9292 5.98003 1.37704
LeftFoot  -16.2637 0.400566 7.02335
LeftToes  -2.88401e-009 5.30678e-011 -1.08654e-010
1305
root  -19.9627 38.8086 8.84557 -126.861 -85.4519 117.403
RightUpLeg  -14.9604 -8.33931 -6.86581
RightLeg  5.00582 4.58501 0.536305
RightFoot  -4.53762 -0.670105 10.7315
RightToes  7.56698e-010 0 -3.6325e-017
Spine  14.1042 -1.8645 -5.42857
Spine1  5.78093 -2.8084 0.573718
HEad  -0.919186 0.103694 -1.84095
LeftShoulder1  0.322071 2.57362 -28.4916
LeftArm  7.06133 -9.15548 -44.9462
LeftForeArm  12.744 -20.3861 -4.92592
LeftHand  -0.0538061 7.52132 -0.656694
RightShoulder  -0.260103 -4.27321 26.4012
RightArm  13.2362 -5.57275 46.5055
RightForeArm  5.23185 26.5202 5.42672
RightHand  -0.342571 4.96662 -4.14516
LeftUpLeg  11.0805 6.35129 -8.38345
LeftLeg  15.672 5.58561 1.07217
LeftFoot  -17.4603 0.466221 6.75802
LeftToes  -2.88401e-009 5.30678e-011 -1.08654e-010
1306
root  -21.2027 38.6256 8.75975 -121.493 -85.1868 112.271
RightUpLeg  -14.3113 -8.66445 -6.67488
RightLeg  -2.43973 2.28639 0.841126
RightFoot  -5.1238 -0.687449 11.9616
RightToes  7.56698e-010 0 -3.6325e-017
Spine  13.2144 -1.85168 -5.2088
Spine1  6.41491 -2.73741 0.837046
HEad  -0.93552 -0.36813 -2.28075
LeftShoulder1  0.266344 2.74364 -28.9126
LeftArm  8.1175 -10.2548 -45.0737
LeftForeArm  11.6352 -20.9034 -4.81992
LeftHand  -0.04922 7.6083 -0.31695
RightShoulder  -0.193753 -4.07804 26.0013
RightArm  13.8861 -5.9104 46.804
RightForeArm  5.23499 25.631 5.22172
RightHand  -0.305253 3.99044 -4.04276
LeftUpLeg  13.2732 6.49308 -8.50594
LeftLeg  15.0926 5.11822 0.88595
LeftFoot  -19.106 0.528027 6.08299
LeftToes  -2.88401e-009 5.30678e-011 -1.08654e-010
1307
root  -22.4853 38.356 8.62476 -115.919 -85.138 106.835
RightUpLeg  -14.6903 -8.29758 -6.29123
RightLeg  -3.77609 0.597815 0.863268
RightFoot  -5.73836 -0.635028 11.9645
RightToes  7.56698e-010 0 -3.6325e-017
Spine  12.7857 -1.88051 -4.98207
Spine1  6.61825 -2.75745 1.02822
HEad  -1.12772 -0.61872 -2.57561
LeftShoulder1  0.233057 2.84545 -29.2663
LeftArm  8.82633 -10.7754 -45.1733
LeftForeArm  11.1583 -21.2008 -4.76275
LeftHand  -0.0334479 7.22939 0.379869
RightShoulder  -0.225993 -4.16875 26.425
RightArm  15.3584 -5.81901 46.4657
RightForeArm  4.81399 24.0629 4.91173
RightHand  -0.254087 4.36849 -3.30025
LeftUpLeg  15.0938 6.86608 -8.24601
LeftLeg  15.7371 4.22549 0.890596
LeftFoot  -21.1425 0.589103 5.38884
LeftToes  -2.88401e-009 5.30678e-011 -1.08654e-010
1308
root  -23.7886 38.1098 8.47819 -115.231 -85.2211 106.332
RightUpLeg  -16.1242 -8.08586 -5.50088
RightLeg  0.49314 -1.1204 1.25023
RightFoot  -3.68067 -0.665933 10.0351
RightToes  7.56698e-010 0 -3.6325e-017
Spine  12.7469 -1.84395 -4.12746
Spine1  6.67574 -2.6779 1.03078
HEad  -1.35273 -0.696667 -2.8577
LeftShoulder1  0.254366 2.78657 -29.3291
LeftArm  9.44912 -10.175 -45.3495
LeftForeArm  11.1883 -21.714 -4.62282
LeftHand  -0.0562933 7.35617 -0.893286
RightShoulder  -0.268806 -4.29291 26.7154
RightArm  17.0556 -5.65552 46.3758
RightForeArm  3.68019 21.6658 4.65256
RightHand  -0.271413 4.51802 -3.45249
LeftUpLeg  16.8935 7.17068 -7.7146
LeftLeg  16.3771 3.63506 1.01469
LeftFoot  -22.6803 0.565131 4.30648
LeftToes  -2.88401e-009 5.30678e-011 -1.08654e-010
1309
root  -25.0848 38.0518 8.35602 -113.163 -86.2422 104.597
RightUpLeg  -18.1109 -7.99495 -3.92775
RightLeg  6.25963 -0.748033 1.20869
RightFoot  1.94988 -0.361273 3.18176
RightToes  7.56698e-010 0 -3.6325e-017
Spine  12.7154 -2.12875 -2.12416
Spine1  7.20967 -2.95495 1.56913
HEad  -1.75895 -0.895668 -3.24022
LeftShoulder1  0.230331 2.86065 -29.7597
LeftArm  10.3541 -9.08549 -45.3381
LeftForeArm  11.0876 -22.1355 -4.54035
LeftHand  -0.0488802 7.27101 -0.521908
RightShoulder  -0.297438 -4.37807 26.7783
RightArm  16.8725 -5.83365 46.2505
RightForeArm  4.73571 19.4289 4.75912
RightHand  -0.196975 3.96424 -2.71411
LeftUpLeg  18.7618 7.00391 -6.24961
LeftLeg  16.4 2.56791 1.01009
LeftFoot  -23.0067 0.3895 2.46488
LeftToes  -2.88401e-009 5.30678e-011 -1.08654e-010
1310
root  -26.5019 37.9484 8.20632 -119.526 -87.743 111.329
RightUpLeg  -19.7181 -8.15621 -2.00729
RightLeg  11.5083 -0.386997 0.642714
RightFoot  7.41643 -0.144505 1.10263
RightToes  7.56698e-010 0 -3.6325e-017
Spine  12.6135 -2.5581 0.240801
Spine1  7.4288 -3.34803 2.21374
HEad  -1.8113 -0.700277 -3.70287
LeftShoulder1  0.144824 3.11198 -30.7847
LeftArm  11.6878 -7.66426 -44.7982
LeftForeArm  10.7898 -21.6934 -4.69297
LeftHand  -0.0526454 7.24683 -0.769464
RightShoulder  -0.318511 -4.43374 27.0618
RightArm  15.3804 -6.04347 45.82
RightForeArm  5.68671 16.8479 5.12507
RightHand  -0.231694 4.44731 -3.02098
LeftUpLeg  19.9179 6.82673 -3.90168
LeftLeg  18.2599 1.16061 0.765438
LeftFoot  -23.4437 0.145244 0.0681756
LeftToes  -2.88401e-009 5.30678e-011 -1.08654e-010
1311
root  -27.9617 37.8329 8.10223 -166.119 -88.7052 158.103
RightUpLeg  -21.0844 -8.68837 0.453681
RightLeg  17.9069 1.16633 0.258252
RightFoot  6.07746 0.0485023 -0.0467657
RightToes  7.56698e-010 0 -3.6325e-017
Spine  12.8788 -2.99728 4.12728
Spine1  7.06067 -3.07009 1.13818
HEad  -1.53649 -0.149131 -4.2318
LeftShoulder1  0.133698 3.14643 -31.3069
LeftArm  11.9233 -5.36391 -44.6411
LeftForeArm  12.1263 -20.683 -5.03261
LeftHand  -0.0588063 7.10832 -1.19499
RightShoulder  -0.324934 -4.44665 27.2842
RightArm  12.9578 -6.51309 45.3654
RightForeArm  7.21101 14.138 5.44785
RightHand  -0.236227 3.61527 -3.30109
LeftUpLeg  20.2127 6.5221 -1.46542
LeftLeg  22.2905 0.213087 0.430883
LeftFoot  -23.0041 -0.22382 -3.57824
LeftToes  -2.88401e-009 5.30678e-011 -1.08654e-010
1312
root  -29.3096 37.7804 7.97466 144.016 -87.9202 -151.735
RightUpLeg  -21.5963 -8.49424 1.98406
RightLeg  22.3217 1.54809 0.449455
RightFoot  4.696 0.37742 -2.46885
RightToes  7.56698e-010 0 -3.6325e-017
Spine  13.2867 -3.34973 6.72348
Spine1  6.94653 -2.99243 1.283
HEad  -1.21908 0.557335 -5.02509
LeftShoulder1  0.118841 3.18661 -31.4193
LeftArm  9.79857 -2.60352 -44.9495
LeftForeArm  14.6443 -18.648 -5.90708
LeftHand  -0.0872623 7.83872 -1.9838
RightShoulder  -0.274419 -4.29791 27.2051
RightArm  11.1296 -6.63932 45.0998
RightForeArm  8.46811 11.4556 5.69037
RightHand  -0.224833 2.95478 -3.33917
LeftUpLeg  18.4168 6.97884 1.0479
LeftLeg  29.2386 -1.73982 -0.765328
LeftFoot  -19.8434 -0.501702 -8.52745
LeftToes  -2.88401e-009 5.30678e-011 -1.08654e-010
1313
root  -30.5437 37.7533 7.71872 104.555 -87.6814 -112.095
RightUpLeg  -21.4308 -8.34712 3.15832
RightLeg  25.8933 0.128399 -0.159376
RightFoot  1.79156 0.455497 -3.82648
RightToes  7.56698e-010 0 -3.6325e-017
Spine  13.6335 -3.88928 7.89518
Spine1  7.08447 -3.46122 2.72866
HEad  -0.487476 0.779754 -4.8422
LeftShoulder1  0.173245 3.0357 -30.8922
LeftArm  6.90379 -0.492261 -45.5412
LeftForeArm  18.2106 -15.5672 -7.41014
LeftHand  -0.111537 8.37318 -2.41018
RightShoulder  -0.328121 -4.4493 27.5218
RightArm  9.66832 -6.91084 44.745
RightForeArm  10.0736 9.85722 5.51153
RightHand  -0.154285 2.28405 -2.53388
LeftUpLeg  14.3376 7.12719 4.25031
LeftLeg  38.9818 -3.61306 -2.7171
LeftFoot  -12.5943 -0.0497846 -12.3972
LeftToes  -2.88401e-009 5.30678e-011 -1.08654e-010
